<?xml version="1.0" standalone="no"?>
<!DOCTYPE svg PUBLIC "-//W3C//DTD SVG 20010904//EN"
 "http://www.w3.org/TR/2001/REC-SVG-20010904/DTD/svg10.dtd">
<svg version="1.0" xmlns="http://www.w3.org/2000/svg"
 width="900.000000pt" height="900.000000pt" viewBox="0 0 900.000000 900.000000"
 preserveAspectRatio="xMidYMid meet">

<g transform="translate(0.000000,900.000000) scale(0.100000,-0.100000)"
fill="#000000" stroke="none">
<path d="M4116 5895 c-208 -212 -377 -387 -375 -389 9 -9 261 -66 351 -81 240
-38 581 -38 818 0 93 15 341 73 349 81 3 2 -101 111 -230 242 -129 130 -299
303 -379 385 -79 81 -147 147 -150 147 -3 0 -176 -173 -384 -385z"/>
<path d="M3840 3676 l0 -956 275 0 275 0 0 828 0 827 -38 26 c-90 64 -358 189
-454 212 -14 4 -33 10 -42 13 -15 6 -16 -79 -16 -950z m537 -518 c-1 -222 -2
-43 -2 397 0 440 1 621 2 403 2 -218 2 -578 0 -800z m-154 -425 c-56 -2 -151
-2 -210 0 -59 1 -13 3 102 3 116 0 164 -2 108 -3z"/>
</g>
</svg>
